<svg width="30" height="30" viewBox="0 0 30 30" fill="none" xmlns="http://www.w3.org/2000/svg">
<g clip-path="url(#clip0_102_35)">
<path d="M15 0C11.0218 0 7.20644 1.58035 4.3934 4.3934C1.58035 7.20644 0 11.0218 0 15C0 18.9782 1.58035 22.7936 4.3934 25.6066C7.20644 28.4196 11.0218 30 15 30C18.9782 30 22.7936 28.4196 25.6066 25.6066C28.4196 22.7936 30 18.9782 30 15C30 11.0218 28.4196 7.20644 25.6066 4.3934C22.7936 1.58035 18.9782 0 15 0Z" fill="#29B6F6"/>
<path d="M21.2188 9.375L18.8775 21.3288C18.8775 21.3288 18.7769 21.875 18.0994 21.875C17.7394 21.875 17.5538 21.7038 17.5538 21.7038L12.4825 17.4956L10.0013 16.245L6.81687 15.3981C6.81687 15.3981 6.25 15.2344 6.25 14.7656C6.25 14.375 6.83312 14.1888 6.83312 14.1888L20.1556 8.89625C20.155 8.89563 20.5625 8.74938 20.8594 8.75C21.0419 8.75 21.25 8.82813 21.25 9.0625C21.25 9.21875 21.2188 9.375 21.2188 9.375Z" fill="white"/>
<path d="M14.375 19.0656L12.2337 21.1744C12.2337 21.1744 12.1406 21.2463 12.0162 21.2494C11.9731 21.2506 11.9269 21.2438 11.8794 21.2225L12.4819 17.4944L14.375 19.0656Z" fill="#B0BEC5"/>
<path d="M18.6856 11.3724C18.58 11.2349 18.385 11.2099 18.2475 11.3143L10 16.2499C10 16.2499 11.3162 19.9324 11.5169 20.5699C11.7181 21.2081 11.8794 21.2231 11.8794 21.2231L12.4819 17.4949L18.6269 11.8099C18.7644 11.7056 18.79 11.5099 18.6856 11.3724Z" fill="#CFD8DC"/>
<path d="M18.6856 11.3724C18.58 11.2349 18.385 11.2099 18.2475 11.3143L10 16.2499C10 16.2499 11.3162 19.9324 11.5169 20.5699C11.7181 21.2081 11.8794 21.2231 11.8794 21.2231L12.4819 17.4949L18.6269 11.8099C18.7644 11.7056 18.79 11.5099 18.6856 11.3724Z" fill="#CFD8DC"/>
</g>
<defs>
<clipPath id="clip0_102_35">
<rect width="30" height="30" fill="white"/>
</clipPath>
</defs>
</svg>
