<svg width="147" height="30" viewBox="0 0 147 30" fill="none" xmlns="http://www.w3.org/2000/svg">
<path d="M1.66172 6H6.82172C8.14172 6 9.24172 6.44 10.1217 7.32C11.0151 8.2 11.4617 9.29333 11.4617 10.6C11.4617 11.8933 11.0151 12.9867 10.1217 13.88C9.24172 14.76 8.14172 15.2 6.82172 15.2H3.96172V20H1.66172V6ZM3.96172 13.04H6.82172C7.50172 13.04 8.06172 12.8133 8.50172 12.36C8.94172 11.8933 9.16172 11.3067 9.16172 10.6C9.16172 9.89333 8.94172 9.31333 8.50172 8.86C8.06172 8.39333 7.50172 8.16 6.82172 8.16H3.96172V13.04ZM24.2755 15.92H16.3155C16.4755 16.6667 16.8355 17.2467 17.3955 17.66C17.9688 18.0733 18.6755 18.28 19.5155 18.28C20.6488 18.28 21.5088 17.8667 22.0955 17.04L23.8755 18.08C22.9021 19.5333 21.4421 20.26 19.4955 20.26C17.8821 20.26 16.5688 19.7667 15.5555 18.78C14.5555 17.78 14.0555 16.52 14.0555 15C14.0555 13.52 14.5488 12.2733 15.5355 11.26C16.5088 10.2467 17.7755 9.74 19.3355 9.74C20.7888 9.74 21.9888 10.2533 22.9355 11.28C23.8821 12.3067 24.3555 13.5533 24.3555 15.02C24.3555 15.2867 24.3288 15.5867 24.2755 15.92ZM16.2955 14.16H22.1755C22.0288 13.3733 21.6955 12.7667 21.1755 12.34C20.6688 11.9133 20.0488 11.7 19.3155 11.7C18.5155 11.7 17.8488 11.92 17.3155 12.36C16.7821 12.8 16.4421 13.4 16.2955 14.16ZM36.2561 10H38.4561V20H36.3561V13.42L33.4761 18H33.2161L30.3561 13.44V20H28.2561V10H30.4561L33.3561 14.62L36.2561 10ZM49.7114 20.26C47.6047 20.26 45.8581 19.5667 44.4714 18.18C43.0847 16.7667 42.3914 15.04 42.3914 13C42.3914 10.9467 43.0847 9.22667 44.4714 7.84C45.8447 6.44 47.5914 5.74 49.7114 5.74C50.9781 5.74 52.1447 6.04 53.2114 6.64C54.2914 7.24 55.1314 8.05333 55.7314 9.08L53.7314 10.24C53.3581 9.54667 52.8114 9 52.0914 8.6C51.3847 8.18667 50.5914 7.98 49.7114 7.98C48.2314 7.98 47.0181 8.45333 46.0714 9.4C45.1514 10.3333 44.6914 11.5333 44.6914 13C44.6914 14.4667 45.1514 15.6667 46.0714 16.6C47.0181 17.5467 48.2314 18.02 49.7114 18.02C50.5914 18.02 51.3914 17.82 52.1114 17.42C52.8314 17.0067 53.3714 16.4533 53.7314 15.76L55.7314 16.9C55.1581 17.9133 54.3247 18.7333 53.2314 19.36C52.1781 19.96 51.0047 20.26 49.7114 20.26ZM58.5398 10H67.2398V12.08H63.9798V20H61.8198V12.08H58.5398V10ZM72.8214 16.34L77.9414 10H79.6014V20H77.4814V13.64L72.3614 20H70.7014V10H72.8214V16.34ZM89.7677 9.74C91.1277 9.74 92.301 10.2533 93.2877 11.28C94.261 12.2933 94.7477 13.5333 94.7477 15C94.7477 16.48 94.261 17.7267 93.2877 18.74C92.3143 19.7533 91.141 20.26 89.7677 20.26C88.261 20.26 87.0943 19.7 86.2677 18.58V24H84.1077V10H86.2677V11.44C87.081 10.3067 88.2477 9.74 89.7677 9.74ZM87.1677 17.3C87.7677 17.9 88.521 18.2 89.4277 18.2C90.3343 18.2 91.0877 17.9 91.6877 17.3C92.2877 16.6867 92.5877 15.92 92.5877 15C92.5877 14.08 92.2877 13.32 91.6877 12.72C91.0877 12.1067 90.3343 11.8 89.4277 11.8C88.521 11.8 87.7677 12.1067 87.1677 12.72C86.5677 13.32 86.2677 14.08 86.2677 15C86.2677 15.9067 86.5677 16.6733 87.1677 17.3ZM109.785 6H112.245V20H109.945V10.02L105.685 17.06H105.405L101.145 10V20H98.8453V6H101.325L105.545 13L109.785 6ZM124.817 11.42V10H126.977V20H124.817V18.56C124.003 19.6933 122.837 20.26 121.317 20.26C119.943 20.26 118.77 19.7533 117.797 18.74C116.823 17.7267 116.337 16.48 116.337 15C116.337 13.52 116.823 12.2733 117.797 11.26C118.77 10.2467 119.943 9.74 121.317 9.74C122.837 9.74 124.003 10.3 124.817 11.42ZM119.397 17.3C119.997 17.9 120.75 18.2 121.657 18.2C122.563 18.2 123.317 17.9 123.917 17.3C124.517 16.6867 124.817 15.92 124.817 15C124.817 14.08 124.517 13.32 123.917 12.72C123.317 12.1067 122.563 11.8 121.657 11.8C120.75 11.8 119.997 12.1067 119.397 12.72C118.797 13.32 118.497 14.08 118.497 15C118.497 15.9067 118.797 16.6733 119.397 17.3ZM143.334 17.96V10H145.494V20H131.494V10H133.654V17.96H137.414V10H139.574V17.96H143.334Z" fill="#3A40CB"/>
<line x1="8.74228e-08" y1="27" x2="81" y2="27" stroke="#3A40CB" stroke-width="2"/>
<line x1="89" y1="27" x2="147" y2="27" stroke="#3A40CB" stroke-width="2"/>
</svg>
