<svg width="30" height="30" viewBox="0 0 30 30" fill="none" xmlns="http://www.w3.org/2000/svg">
<g clip-path="url(#clip0_102_33)">
<path d="M25.8625 2.92113C25.1187 2.23988 22.1062 0.049882 15.3975 0.021132C15.3975 0.021132 7.48124 -0.452618 3.62499 3.08613C1.47999 5.23113 0.728738 8.37238 0.642488 12.2686C0.556238 16.1649 0.459988 23.4674 7.49874 25.4524H7.50499L7.49874 28.4761C7.49874 28.4761 7.45249 29.7011 8.25749 29.9474C9.22999 30.2524 9.80499 29.3199 10.7362 28.3174C11.2462 27.7661 11.9487 26.9586 12.4825 26.3424C13.2325 26.4161 14.1025 26.4574 14.9837 26.4574C17.2675 26.4574 19.4862 26.1761 21.6062 25.6461L21.4187 25.6861C22.3912 25.3699 27.8937 24.6661 28.7837 17.3649C29.7137 9.82738 28.3412 5.07238 25.8625 2.92113ZM26.6775 16.8149C25.9187 22.9086 21.4612 23.2961 20.6412 23.5586C18.8512 24.0136 16.7962 24.2736 14.68 24.2736C14.0725 24.2736 13.47 24.2524 12.8737 24.2099L12.9537 24.2149C12.9537 24.2149 9.90624 27.8886 8.95749 28.8436C8.64749 29.1536 8.30624 29.1286 8.31249 28.5099C8.31249 28.1061 8.33624 23.4874 8.33624 23.4874C2.37749 21.8349 2.72249 15.6149 2.79249 12.3661C2.86249 9.11738 3.47249 6.44738 5.28874 4.65488C8.55374 1.69613 15.275 2.13488 15.275 2.13488C20.9537 2.15863 23.6725 3.86988 24.305 4.44363C26.3975 6.23738 27.4637 10.5274 26.6775 16.8136V16.8149ZM18.5387 12.0799V12.0974C18.5387 12.3074 18.3687 12.4774 18.1587 12.4774C17.955 12.4774 17.7887 12.3174 17.78 12.1161V12.1149C17.785 12.0624 17.7887 11.9999 17.7887 11.9386C17.7887 10.9374 16.9775 10.1261 15.9762 10.1261C15.9387 10.1261 15.9012 10.1274 15.865 10.1299H15.87C15.6687 10.1186 15.51 9.95363 15.51 9.75113C15.51 9.54113 15.68 9.37113 15.89 9.37113H15.9112H15.91C15.935 9.36988 15.9662 9.36988 15.9962 9.36988C17.4037 9.36988 18.5437 10.5099 18.5437 11.9174C18.5437 11.9749 18.5412 12.0324 18.5375 12.0886V12.0811L18.5387 12.0799ZM19.7275 12.7436C19.7862 10.2586 18.2337 8.31363 15.2862 8.09613C15.0875 8.08238 14.9325 7.91738 14.9325 7.71738C14.9325 7.50738 15.1025 7.33738 15.3125 7.33738C15.3212 7.33738 15.3312 7.33738 15.34 7.33863H15.3387H15.36C18.1937 7.33863 20.4925 9.63613 20.4925 12.4711C20.4925 12.5724 20.49 12.6736 20.4837 12.7736L20.485 12.7599C20.48 12.9661 20.3125 13.1299 20.1062 13.1299C19.8962 13.1299 19.7262 12.9599 19.7262 12.7499C19.7262 12.7461 19.7262 12.7436 19.7262 12.7399L19.7275 12.7436ZM22.4775 13.5299V13.5324C22.4775 13.7424 22.3075 13.9124 22.0975 13.9124C21.8875 13.9124 21.72 13.7436 21.7187 13.5361C21.6887 8.75863 18.5025 6.15738 14.6412 6.12988C14.4312 6.12988 14.2625 5.95988 14.2625 5.75113C14.2625 5.54238 14.4325 5.37238 14.6412 5.37238C18.965 5.40238 22.44 8.38613 22.475 13.5286L22.4775 13.5299ZM21.8212 19.2774V19.2886C21.1887 20.4024 20.005 21.6324 18.7862 21.2399L18.775 21.2224C16.485 20.3674 14.505 19.2499 12.7362 17.8736L12.7875 17.9111C11.8587 17.1711 11.0425 16.3549 10.3262 15.4574L10.3025 15.4261C9.66624 14.6286 9.06999 13.7361 8.54999 12.7936L8.49999 12.6949C7.92874 11.7624 7.41249 10.6849 7.00874 9.55363L6.97124 9.43113C6.57874 8.21238 7.80249 7.02863 8.92249 6.39613H8.93374C9.09624 6.29238 9.29374 6.22988 9.50624 6.22988C9.83999 6.22988 10.1375 6.38363 10.3337 6.62238L10.335 6.62488C10.335 6.62488 11.0612 7.49113 11.3725 7.91988C11.665 8.31863 12.0587 8.95738 12.2625 9.31363C12.38 9.49738 12.4487 9.72238 12.4487 9.96363C12.4487 10.3236 12.2937 10.6474 12.0462 10.8711L12.045 10.8724L11.3425 11.4349C11.1487 11.6224 11.0287 11.8849 11.0287 12.1749C11.0287 12.2036 11.03 12.2311 11.0325 12.2586V12.2549C11.7562 14.6336 13.5925 16.4699 15.92 17.1811L15.9725 17.1949C15.9962 17.1974 16.025 17.1986 16.0525 17.1986C16.3425 17.1986 16.605 17.0786 16.7925 16.8861L17.355 16.1836C17.58 15.9349 17.9037 15.7799 18.2637 15.7799C18.505 15.7799 18.7287 15.8499 18.9187 15.9699L18.9137 15.9674C19.93 16.5461 20.8087 17.1824 21.61 17.9036L21.5962 17.8911C21.8362 18.0836 21.9875 18.3774 21.9875 18.7061C21.9875 18.9174 21.925 19.1136 21.8162 19.2786L21.8187 19.2749L21.8212 19.2774Z" fill="#9A3BD3"/>
</g>
<defs>
<clipPath id="clip0_102_33">
<rect width="30" height="30" fill="white"/>
</clipPath>
</defs>
</svg>
